<svg viewBox="0 0 1200 630" xmlns="http://www.w3.org/2000/svg" xmlns:xlink="http://www.w3.org/1999/xlink"><linearGradient id="a" x1="0%" x2="100%" y1="0%" y2="100%"><stop offset="0" stop-color="#0a1628"/><stop offset="1" stop-color="#162447"/></linearGradient><path d="m0 0h1200v630h-1200z" fill="url(#a)"/><circle cx="200" cy="160" fill="#d4a853" opacity=".8" r="50"/><circle cx="218" cy="150" fill="#0f1d35" r="42"/><g fill="#fff"><circle cx="400" cy="100" opacity=".6" r="2"/><circle cx="600" cy="80" opacity=".5" r="2.5"/><circle cx="800" cy="120" opacity=".7" r="1.5"/><circle cx="1000" cy="90" opacity=".4" r="2"/><circle cx="500" cy="150" opacity=".5" r="1.5"/><circle cx="900" cy="180" opacity=".3" r="2"/></g><path d="m350 315h500" opacity=".4" stroke="#d4a853"/><path d="m600 308 4 6h6l-5 4 2 6-7-4-7 4 2-6-5-4h6z" fill="#d4a853" opacity=".5"/><g font-family="serif" text-anchor="middle"><text direction="rtl" fill="#d4a853" font-size="90" x="600" y="270">جِحَابيديا</text><text direction="rtl" fill="#f5deb3" font-size="32" opacity=".7" x="600" y="380">موسوعة نوادر جحا</text><text fill="#f5deb3" font-size="24" font-style="italic" opacity=".4" x="600" y="430">The Jeha Encyclopedia</text><text fill="#d4a853" font-size="20" opacity=".3" x="600" y="560">jehapedia.org</text></g></svg>